<svg width="25" height="18" viewBox="0 0 25 18" fill="none" xmlns="http://www.w3.org/2000/svg">
<g clip-path="url(#clip0_1_2064)">
<path d="M20.5212 1.70927C19.0029 1.01413 17.4 0.520975 15.7535 0.242401C15.5281 0.645178 15.3243 1.05958 15.1427 1.48388C13.3889 1.21959 11.6053 1.21959 9.85145 1.48388C9.66978 1.05962 9.46592 0.645227 9.2407 0.242401C7.59313 0.523327 5.98917 1.01765 4.46929 1.71291C1.45194 6.17713 0.633983 10.5305 1.04296 14.822C2.81 16.1276 4.78782 17.1205 6.89044 17.7576C7.36389 17.1208 7.78283 16.4453 8.14282 15.7381C7.45907 15.4828 6.79913 15.1677 6.17064 14.7966C6.33605 14.6766 6.49782 14.553 6.65414 14.433C8.48291 15.2931 10.4789 15.739 12.4998 15.739C14.5207 15.739 16.5167 15.2931 18.3455 14.433C18.5036 14.5621 18.6654 14.6857 18.829 14.7966C18.1993 15.1683 17.5381 15.484 16.8532 15.74C17.2127 16.4468 17.6317 17.1217 18.1055 17.7576C20.21 17.123 22.1893 16.1306 23.9566 14.8238C24.4365 9.84703 23.1369 5.53367 20.5212 1.70927ZM8.66086 12.1827C7.52118 12.1827 6.57962 11.1485 6.57962 9.87611C6.57962 8.60373 7.48846 7.56039 8.65723 7.56039C9.826 7.56039 10.7603 8.60373 10.7403 9.87611C10.7203 11.1485 9.82236 12.1827 8.66086 12.1827ZM16.3387 12.1827C15.1972 12.1827 14.2593 11.1485 14.2593 9.87611C14.2593 8.60373 15.1682 7.56039 16.3387 7.56039C17.5093 7.56039 18.4364 8.60373 18.4164 9.87611C18.3964 11.1485 17.5002 12.1827 16.3387 12.1827Z" fill="white"/>
</g>
<defs>
<clipPath id="clip0_1_2064">
<rect width="23.11" height="17.5152" fill="white" transform="translate(0.944824 0.242401)"/>
</clipPath>
</defs>
</svg>
