<svg width="25" height="24" viewBox="0 0 25 24" fill="none" xmlns="http://www.w3.org/2000/svg">
<path d="M22.9448 5.8C22.1932 6.12609 21.3983 6.34166 20.5848 6.44C21.443 5.92732 22.0861 5.12078 22.3948 4.17C21.5884 4.65006 20.7056 4.98829 19.7848 5.17C19.1694 4.50257 18.3498 4.05829 17.4546 3.90685C16.5595 3.7554 15.6394 3.90535 14.8386 4.33319C14.0379 4.76102 13.4018 5.44253 13.0301 6.27083C12.6584 7.09914 12.5721 8.02739 12.7848 8.91C11.1543 8.82752 9.55927 8.40295 8.10348 7.66386C6.64769 6.92477 5.36367 5.88769 4.33482 4.62C3.97396 5.25016 3.78434 5.96382 3.78482 6.69C3.78354 7.36438 3.94904 8.02861 4.26658 8.62356C4.58412 9.21851 5.04384 9.72571 5.60482 10.1C4.9528 10.0823 4.31471 9.90729 3.74482 9.59V9.64C3.74971 10.5849 4.08082 11.4991 4.68214 12.228C5.28346 12.9568 6.11808 13.4556 7.04482 13.64C6.68808 13.7486 6.3177 13.8058 5.94482 13.81C5.68671 13.807 5.42925 13.7836 5.17482 13.74C5.43873 14.5528 5.94945 15.2631 6.6359 15.7722C7.32235 16.2812 8.1504 16.5635 9.00482 16.58C7.56203 17.7153 5.78071 18.3349 3.94482 18.34C3.61056 18.3411 3.27656 18.3211 2.94482 18.28C4.81925 19.4903 7.00364 20.1327 9.23482 20.13C10.7745 20.146 12.302 19.855 13.7279 19.2741C15.1539 18.6931 16.4498 17.8339 17.54 16.7465C18.6302 15.6591 19.4928 14.3654 20.0774 12.9409C20.662 11.5164 20.9569 9.98972 20.9448 8.45C20.9448 8.28 20.9448 8.1 20.9448 7.92C21.7295 7.33481 22.4063 6.61742 22.9448 5.8Z" fill="white"/>
</svg>
