<svg width="25" height="24" viewBox="0 0 25 24" fill="none" xmlns="http://www.w3.org/2000/svg">
<g clip-path="url(#clip0_1_547)">
<mask id="mask0_1_547" style="mask-type:luminance" maskUnits="userSpaceOnUse" x="1" y="0" width="24" height="24">
<path d="M24.3068 9.81819H13.125V14.4546H19.5614C18.9614 17.4 16.4523 19.0909 13.125 19.0909C9.19773 19.0909 6.03409 15.9273 6.03409 12C6.03409 8.07273 9.19773 4.90909 13.125 4.90909C14.8159 4.90909 16.3432 5.50909 17.5432 6.49091L21.0341 3C18.9068 1.14545 16.1796 0 13.125 0C6.47046 0 1.125 5.34546 1.125 12C1.125 18.6546 6.47046 24 13.125 24C19.125 24 24.5796 19.6364 24.5796 12C24.5796 11.2909 24.4705 10.5273 24.3068 9.81819Z" fill="white"/>
</mask>
<g mask="url(#mask0_1_547)">
<path d="M0.0340576 19.091V4.90918L9.30679 12.0001L0.0340576 19.091Z" fill="#FBBC05"/>
</g>
<mask id="mask1_1_547" style="mask-type:luminance" maskUnits="userSpaceOnUse" x="1" y="0" width="24" height="24">
<path d="M24.3068 9.81819H13.125V14.4546H19.5614C18.9614 17.4 16.4523 19.0909 13.125 19.0909C9.19773 19.0909 6.03409 15.9273 6.03409 12C6.03409 8.07273 9.19773 4.90909 13.125 4.90909C14.8159 4.90909 16.3432 5.50909 17.5432 6.49091L21.0341 3C18.9068 1.14545 16.1796 0 13.125 0C6.47046 0 1.125 5.34546 1.125 12C1.125 18.6546 6.47046 24 13.125 24C19.125 24 24.5796 19.6364 24.5796 12C24.5796 11.2909 24.4705 10.5273 24.3068 9.81819Z" fill="white"/>
</mask>
<g mask="url(#mask1_1_547)">
<path d="M0.0340576 4.90918L9.30679 12.0001L13.125 8.67282L26.2159 6.54555V-1.09082H0.0340576V4.90918Z" fill="#EA4335"/>
</g>
<mask id="mask2_1_547" style="mask-type:luminance" maskUnits="userSpaceOnUse" x="1" y="0" width="24" height="24">
<path d="M24.3068 9.81819H13.125V14.4546H19.5614C18.9614 17.4 16.4523 19.0909 13.125 19.0909C9.19773 19.0909 6.03409 15.9273 6.03409 12C6.03409 8.07273 9.19773 4.90909 13.125 4.90909C14.8159 4.90909 16.3432 5.50909 17.5432 6.49091L21.0341 3C18.9068 1.14545 16.1796 0 13.125 0C6.47046 0 1.125 5.34546 1.125 12C1.125 18.6546 6.47046 24 13.125 24C19.125 24 24.5796 19.6364 24.5796 12C24.5796 11.2909 24.4705 10.5273 24.3068 9.81819Z" fill="white"/>
</mask>
<g mask="url(#mask2_1_547)">
<path d="M0.0340576 19.091L16.3977 6.54555L20.7068 7.091L26.2159 -1.09082V25.091H0.0340576V19.091Z" fill="#34A853"/>
</g>
<mask id="mask3_1_547" style="mask-type:luminance" maskUnits="userSpaceOnUse" x="1" y="0" width="24" height="24">
<path d="M24.3068 9.81819H13.125V14.4546H19.5614C18.9614 17.4 16.4523 19.0909 13.125 19.0909C9.19773 19.0909 6.03409 15.9273 6.03409 12C6.03409 8.07273 9.19773 4.90909 13.125 4.90909C14.8159 4.90909 16.3432 5.50909 17.5432 6.49091L21.0341 3C18.9068 1.14545 16.1796 0 13.125 0C6.47046 0 1.125 5.34546 1.125 12C1.125 18.6546 6.47046 24 13.125 24C19.125 24 24.5796 19.6364 24.5796 12C24.5796 11.2909 24.4705 10.5273 24.3068 9.81819Z" fill="white"/>
</mask>
<g mask="url(#mask3_1_547)">
<path d="M26.2159 25.091L9.30682 12.0001L7.125 10.3637L26.2159 4.90918V25.091Z" fill="#4285F4"/>
</g>
</g>
<defs>
<clipPath id="clip0_1_547">
<rect width="24" height="24" fill="white" transform="translate(0.75)"/>
</clipPath>
</defs>
</svg>
