<svg width="150" height="9" viewBox="0 0 150 9" fill="none" xmlns="http://www.w3.org/2000/svg">
<path d="M1.81647 7.5472V5.13254H6.36531C7.07251 5.13254 7.64581 4.55924 7.64581 3.85204H1.81647V1.57152H7.46288C8.17009 1.57152 8.74339 0.998218 8.74339 0.291016H0.365234V8.82771H8.86534C8.86534 8.12051 8.29204 7.5472 7.58484 7.5472H1.81647Z" fill="#F5F5F5"/>
<path d="M31.689 0.291016H22.4694C22.4694 0.998218 23.0427 1.57152 23.7499 1.57152H26.3353V8.82771H27.7987V1.57152H30.4085C31.1157 1.57152 31.689 0.998218 31.689 0.291016Z" fill="#F5F5F5"/>
<path d="M47.4197 7.5472V5.13254H51.9685C52.6757 5.13254 53.249 4.55924 53.249 3.85204H47.4197V1.57152H53.0661C53.7733 1.57152 54.3466 0.998218 54.3466 0.291016H45.9684V8.82771H54.4685C54.4685 8.12051 53.8952 7.5472 53.188 7.5472H47.4197Z" fill="#F5F5F5"/>
<path d="M78.6337 8.82771L75.8653 5.65694C77.3531 5.38864 78.3776 4.48619 78.3776 3.01056C78.3776 1.24225 76.9141 0.291016 74.9263 0.291016H69.1213V8.82771C69.9296 8.82771 70.5848 8.17251 70.5848 7.36428V5.73011H74.1824L76.8288 8.82771H78.6337ZM70.5726 4.474V1.57152H74.8287C76.0483 1.57152 76.8775 1.96177 76.8775 3.02276C76.8775 4.08375 76.0483 4.474 74.8287 4.474H70.5726Z" fill="#F5F5F5"/>
<path d="M101.131 0.291016V6.76671L95.8368 1.40211C95.1353 0.691199 94.1781 0.291016 93.1794 0.291016V8.82771H94.594V2.09592L100.355 7.90948C100.937 8.49712 101.73 8.82771 102.558 8.82771V0.291016H101.131Z" fill="#F5F5F5"/>
<path d="M125.942 8.82771H127.539L123.312 0.999684C123.076 0.56312 122.62 0.291016 122.124 0.291016C121.628 0.291016 121.173 0.56254 120.937 0.998373L116.698 8.82771H118.283L119.368 6.76671H124.844L125.942 8.82771ZM120.027 5.52279L122.112 1.57152L124.198 5.52279H120.027Z" fill="#F5F5F5"/>
<path d="M143.152 7.53501V1.75445C143.152 0.94622 142.497 0.291016 141.688 0.291016V8.82771H149.445C149.445 8.11377 148.866 7.53501 148.152 7.53501H143.152Z" fill="#F5F5F5"/>
</svg>
